<svg width="17" height="47" viewBox="0 0 17 47" fill="none" xmlns="http://www.w3.org/2000/svg">
<path d="M2.125 46.875C0.95625 46.875 0 45.9188 0 44.75V25.625C0 24.4562 0.95625 23.5 2.125 23.5H14.875C16.0438 23.5 17 24.4562 17 25.625V44.75C17 45.9188 16.0438 46.875 14.875 46.875H2.125ZM4.25 21.375C3.08125 21.375 2.125 20.4188 2.125 19.25V9.15625C2.125 9.15625 6.375 4.375 7.96875 0.125C10.2638 1.54875 12.58 2.95125 13.7275 6.13875C14.875 9.32625 14.875 14.2987 14.875 19.25C14.875 20.4188 13.9187 21.375 12.75 21.375H4.25Z" fill="white"/>
</svg>
