<svg width="35" height="31" viewBox="0 0 35 31" fill="none" xmlns="http://www.w3.org/2000/svg">
<path fill-rule="evenodd" clip-rule="evenodd" d="M7.139 3.18905C4.44313 4.4208 2.46875 7.3523 2.46875 10.8477C2.46875 14.4178 3.93125 17.1705 6.02425 19.5301C7.75163 21.4735 9.84138 23.0856 11.8791 24.6553C12.3645 25.0291 12.8438 25.4017 13.3172 25.7733C14.172 26.4477 14.9341 27.0375 15.6702 27.4682C16.4064 27.8988 16.9963 28.0938 17.5 28.0938C18.0037 28.0938 18.5953 27.8988 19.3298 27.4682C20.0659 27.0375 20.828 26.4477 21.6828 25.7733C22.1562 25.4006 22.6355 25.0285 23.1209 24.6569C25.1586 23.0839 27.2484 21.4735 28.9757 19.5301C31.0704 17.1705 32.5312 14.4178 32.5312 10.8477C32.5312 7.35393 30.5569 4.4208 27.861 3.18905C25.2415 1.99143 21.7218 2.3083 18.3775 5.78418C18.2638 5.90213 18.1275 5.99595 17.9767 6.06003C17.826 6.12412 17.6638 6.15714 17.5 6.15714C17.3362 6.15714 17.174 6.12412 17.0233 6.06003C16.8725 5.99595 16.7362 5.90213 16.6225 5.78418C13.2782 2.3083 9.7585 1.99143 7.139 3.18905ZM17.5 3.24755C13.743 -0.116199 9.53588 -0.587449 6.125 0.970926C2.52725 2.6203 0.03125 6.4423 0.03125 10.8493C0.03125 15.1799 1.835 18.4852 4.20262 21.1502C6.09737 23.2838 8.41625 25.0697 10.4654 26.6459C10.9312 27.0034 11.3786 27.3512 11.8076 27.6892C12.6412 28.3457 13.535 29.0444 14.4401 29.5742C15.3452 30.1039 16.3787 30.5329 17.5 30.5329C18.6213 30.5329 19.6548 30.1023 20.5599 29.5742C21.4666 29.0444 22.3588 28.3457 23.1924 27.6892C23.6214 27.3512 24.0688 27.0034 24.5346 26.6459C26.5821 25.0697 28.9026 23.2822 30.7974 21.1502C33.165 18.4852 34.9688 15.1799 34.9688 10.8493C34.9688 6.4423 32.4744 2.6203 28.875 0.974176C25.4641 -0.585824 21.257 -0.114574 17.5 3.24755Z" fill="#FF007B"/>
</svg>
