<svg width="35" height="35" viewBox="0 0 35 35" fill="none" xmlns="http://www.w3.org/2000/svg">
<path fill-rule="evenodd" clip-rule="evenodd" d="M18.7078 19.709L24.4802 25.4814C25.226 26.2271 25.7338 27.1771 25.9396 28.2114C26.1454 29.2457 26.0398 30.3178 25.6362 31.2921C25.2326 32.2664 24.5492 33.0992 23.6723 33.685C22.7954 34.2709 21.7645 34.5835 20.71 34.5834H20.3666C19.3589 34.5857 18.369 34.3179 17.5 33.8078C16.631 34.3179 15.6411 34.5857 14.6334 34.5834H14.2917C13.237 34.5838 12.2059 34.2714 11.3287 33.6857C10.4516 33.1 9.76791 32.2673 9.36412 31.2929C8.96033 30.3186 8.8546 29.2463 9.0603 28.2119C9.26601 27.1774 9.7739 26.2272 10.5197 25.4814L16.2922 19.7073C16.6126 19.387 17.047 19.2071 17.5 19.2071C17.953 19.2071 18.3874 19.387 18.7078 19.7073V19.709ZM29.2533 8.95843C30.6152 8.95801 31.9255 9.47888 32.9154 10.4141C33.9053 11.3494 34.4997 12.6281 34.5765 13.9878L34.585 14.2901V14.6335C34.5873 15.6412 34.3195 16.6311 33.8095 17.5001C34.24 18.233 34.5099 19.0735 34.5714 19.9772L34.585 20.3667V20.7083C34.5856 21.7333 34.2908 22.7366 33.7359 23.5983C33.1809 24.46 32.3894 25.1434 31.456 25.5668C30.5226 25.9903 29.487 26.1357 28.4731 25.9857C27.4593 25.8357 26.5101 25.3967 25.7393 24.7212L25.483 24.4803L19.7089 18.7079C19.415 18.4135 19.2386 18.022 19.2128 17.6069C19.187 17.1917 19.3136 16.7814 19.5688 16.4529L19.7106 16.2923L25.483 10.5198C26.4825 9.52024 27.8398 8.95859 29.2533 8.95843ZM5.74666 8.95843C7.04499 8.95843 8.29208 9.42993 9.2607 10.279L9.51695 10.5198L15.2911 16.2923C15.585 16.5867 15.7614 16.9782 15.7872 17.3933C15.813 17.8085 15.6864 18.2188 15.4312 18.5473L15.2894 18.7079L9.51695 24.4803C8.78921 25.2071 7.86685 25.708 6.86099 25.9226C5.85512 26.1372 4.80866 26.0564 3.84767 25.6899C2.88668 25.3234 2.05215 24.6869 1.44462 23.857C0.837089 23.0271 0.482473 22.0392 0.423492 21.0124L0.416659 20.7101V20.3667C0.416659 19.3161 0.701951 18.3372 1.19224 17.5001C0.749351 16.7448 0.488486 15.8967 0.430325 15.023L0.416659 14.6352V14.2936C0.415985 13.593 0.553409 12.8993 0.821072 12.2519C1.08873 11.6045 1.48139 11.0163 1.97657 10.5208C2.47175 10.0253 3.05976 9.63223 3.70696 9.36415C4.35415 9.09607 5.04614 8.9582 5.74666 8.95843ZM14.6317 0.416763C15.6394 0.414451 16.6292 0.682271 17.4983 1.19235C18.2536 0.749455 19.1017 0.48859 19.9754 0.430429L20.3649 0.416763H20.7065C21.7314 0.416175 22.7348 0.711004 23.5965 1.26595C24.4582 1.8209 25.1416 2.61244 25.565 3.5458C25.9885 4.47916 26.1339 5.51478 25.9839 6.52866C25.8339 7.54254 25.3949 8.49171 24.7194 9.26251L24.4785 9.51876L18.7061 15.2929C18.4117 15.5868 18.0202 15.7632 17.605 15.789C17.1899 15.8148 16.7796 15.6882 16.4511 15.433L16.2905 15.2912L10.518 9.51876C9.7905 8.79132 9.28898 7.86892 9.07395 6.86282C8.85892 5.85672 8.93957 4.80989 9.30617 3.8486C9.67277 2.88731 10.3097 2.05262 11.14 1.4452C11.9704 0.837774 12.9588 0.48357 13.986 0.425305L14.29 0.416763H14.6317Z" fill="white"/>
</svg>
