<svg width="34" height="31" viewBox="0 0 34 31" fill="none" xmlns="http://www.w3.org/2000/svg">
<path d="M7.99996 7.49998L8.74996 8.24998M26 7.49998L25.25 8.24998M14 15V14.25M20 15V14.25M20 21H14M17 21V24M30.2 3.29998C27.8 0.899981 24.05 0.899981 21.65 3.29998L20.15 4.79998C18.0626 4.47376 15.9373 4.47376 13.85 4.79998L12.35 3.29998C11.246 2.14629 9.72894 1.4784 8.13254 1.44323C6.53614 1.40807 4.99115 2.00852 3.83746 3.11248C2.68376 4.21644 2.01587 5.73349 1.98071 7.3299C1.94555 8.9263 2.54599 10.4713 3.64996 11.625C2.5771 13.3053 2.0048 15.2564 1.99996 17.25C1.99996 24.3 8.74996 30 17 30C25.25 30 32 24.3 32 17.25C32.0095 15.2309 31.4366 13.2518 30.35 11.55C32.6 9.14998 32.6 5.54998 30.2 3.29998Z" stroke="#FF007B" stroke-width="2" stroke-linecap="round" stroke-linejoin="round"/>
</svg>
