<svg width="31" height="28" viewBox="0 0 31 28" fill="none" xmlns="http://www.w3.org/2000/svg">
<path fill-rule="evenodd" clip-rule="evenodd" d="M7.98561 0.46875C7.5894 0.468879 7.19936 0.566842 6.85011 0.753939C6.50086 0.941035 6.20322 1.21148 5.98361 1.54125L1.04873 8.9415C0.747608 9.39525 0.711858 9.9755 0.955233 10.4622C3.65736 15.8624 7.41017 20.6689 11.9937 24.6L14.4 26.6639C14.7065 26.9266 15.0969 27.0711 15.5007 27.0711C15.9044 27.0711 16.2948 26.9266 16.6014 26.6639L19.0076 24.6014C23.5918 20.67 27.3451 15.863 30.0475 10.4622C30.2909 9.9755 30.2537 9.39525 29.9526 8.9415L25.015 1.54125C24.7953 1.21193 24.4978 0.941874 24.1489 0.755032C23.7999 0.56819 23.4102 0.47033 23.0144 0.470125L7.98561 0.46875ZM7.69961 2.68388C7.73105 2.63687 7.7736 2.59835 7.82349 2.57173C7.87337 2.54511 7.92906 2.5312 7.98561 2.53125H11.2031L8.56998 8.85075C8.51147 8.99598 8.46547 9.14594 8.43248 9.299C7.46412 9.22677 6.49692 9.13968 5.53123 9.03775L3.59936 8.83562L7.69961 2.68388ZM3.50998 10.8995C5.97852 15.4253 9.23519 19.474 13.1267 22.8551L8.82986 11.3959C7.65753 11.3153 6.48676 11.2135 5.31811 11.0906L3.50998 10.8995ZM11.0807 11.5238L15.5 23.313L19.9206 11.5238C16.975 11.6573 14.0249 11.6573 11.0794 11.5238M22.1715 11.3959L17.8746 22.8551C21.7661 19.474 25.0228 15.4253 27.4914 10.8995L25.6832 11.0906C24.5145 11.2125 23.3439 11.3143 22.1715 11.3959ZM27.4006 8.83562L25.4674 9.03912C24.5017 9.14105 23.5345 9.22814 22.5661 9.30037C22.5336 9.14689 22.4881 8.99647 22.43 8.85075L19.7969 2.53125H23.0144C23.0709 2.5312 23.1266 2.54511 23.1765 2.57173C23.2264 2.59835 23.2689 2.63687 23.3004 2.68388L27.4006 8.83562ZM20.439 9.43375C17.1472 9.60425 13.8546 9.60425 10.561 9.43375L13.4375 2.53125H17.5625L20.439 9.43375Z" fill="#FF007B"/>
</svg>
